<?xml version="1.0" encoding="UTF-8"?>
<svg width="552px" height="157px" viewBox="0 0 552 157" version="1.1" xmlns="http://www.w3.org/2000/svg" xmlns:xlink="http://www.w3.org/1999/xlink">
    <!-- Generator: Sketch 64 (93537) - https://sketch.com -->
    <title>logo</title>
    <desc>Created with Sketch.</desc>
    <g id="Page-1" stroke="none" stroke-width="1" fill="none" fill-rule="evenodd">
        <g id="logo" fill="#FFFFFF" fill-rule="nonzero">
            <path d="M-2.66229148e-05,93.3354779 L-2.66229148e-05,142.602684 C-0.00710080661,146.168506 1.40649272,149.59028 3.92821523,152.111402 C6.44993773,154.632524 9.87204759,156.045302 13.4378683,156.037386 L45.4293388,156.037386 C48.9949642,156.045304 52.4168563,154.632458 54.9382406,152.111274 C57.4596248,149.59009 58.8727427,146.16831 58.8651048,142.602684 L58.8651048,0.00213333359 L38.392538,0.00213333359 L38.392538,132.589883 C38.3953773,133.990246 37.8403421,135.334071 36.8501339,136.324279 C35.8599256,137.314487 34.5161004,137.869523 33.1157373,137.866683 L25.7493364,137.866683 C24.3487888,137.869807 23.0046889,137.314897 22.0142496,136.324658 C21.0238103,135.334419 20.4686288,133.990431 20.4714691,132.589883 L20.4714691,93.3365446 L-2.66229148e-05,93.3354779 Z M81.9232099,0.00210454101 C78.3572028,-0.00525153566 74.9351548,1.40821659 72.4138018,3.92997 C69.8924487,6.4517234 68.4795239,9.87399569 68.4874416,13.4400016 L68.4874416,142.602684 C68.479806,146.16831 69.8929239,149.59009 72.4143082,152.111274 C74.9356924,154.632458 78.3575845,156.045304 81.9232099,156.037386 L123.849615,156.037386 L123.849615,137.866683 L93.9413447,137.866683 C92.5409923,137.869809 91.19711,137.314831 90.207009,136.32453 C89.2169079,135.334229 88.6622021,133.990234 88.6656107,132.589883 L88.6656107,115.593614 C88.6622032,114.193447 89.2167627,112.849616 90.2066327,111.859345 C91.1965027,110.869075 92.5401102,110.313972 93.940278,110.316813 L123.850682,110.316813 L123.850682,92.6122779 L93.9413447,92.6122779 C92.5409923,92.6154034 91.19711,92.0604259 90.207009,91.0701246 C89.2169079,90.0798234 88.6622021,88.735829 88.6656107,87.3354772 L88.6656107,69.0048083 C88.6619167,67.6046525 89.2164185,66.2607634 90.2063815,65.2706002 C91.1963446,64.280437 92.5401214,63.7256635 93.940278,63.7290744 L123.850682,63.7290744 L123.850682,0.00210454101 L81.9232099,0.00210454101 Z M147.447484,0.00210454816 C143.88138,-0.00525052851 140.459223,1.40818373 137.937701,3.9299061 C135.416179,6.45162847 134.003016,9.87389743 134.010652,13.4400016 L134.010652,142.602684 C134.003583,146.168321 135.41703,149.589932 137.938522,152.111023 C140.460013,154.632114 143.881848,156.045018 147.447484,156.037383 L176.773355,156.037383 C180.338795,156.04502 183.760413,154.632048 186.281566,152.110895 C188.802719,149.589742 190.215691,146.168125 190.208056,142.602684 L190.208056,13.4400016 C190.215973,9.87418092 188.803194,6.45207106 186.282072,3.93034856 C183.76095,1.40862606 180.339177,-0.00496747302 176.773355,0.00210454816 L147.447484,0.00210454816 Z M160.957886,63.8293234 L163.261886,63.8293234 C164.953982,63.8253636 166.577919,64.4957854 167.774414,65.6922808 C168.970909,66.8887761 169.641331,68.5127132 169.637371,70.2048085 L169.637371,131.492283 C169.641046,133.184008 168.970645,134.807508 167.774412,136.003741 C166.578178,137.199975 164.954678,137.870376 163.262953,137.866701 L160.958953,137.866701 C159.267043,137.87066 157.643268,137.200384 156.446804,136.00412 C155.250339,134.807856 154.579792,133.184193 154.583468,131.492283 L154.583468,70.2048085 C154.579509,68.5128985 155.249785,66.8891239 156.446049,65.6926595 C157.642313,64.4961951 159.265975,63.8256478 160.957886,63.8293234 Z M285.827235,0.00213333359 C278.360567,0.00213333359 271.881633,5.99680072 271.299233,13.4400016 L260.157898,156.037352 L279.320567,156.037352 L283.600034,110.316813 L302.433103,110.316813 L306.71257,156.037352 L325.875239,156.037352 L314.733905,13.4400016 C314.151505,5.99680072 307.672571,0.00213333359 300.205903,0.00213333359 L285.827235,0.00213333359 L285.827235,0.00213333359 Z M291.309902,64.0981411 L294.723236,64.0981411 C296.597369,64.0981411 298.248569,65.6000079 298.422436,67.4666748 L300.777636,92.6122779 L285.256568,92.6122779 L287.610701,67.4666748 C287.785635,65.6000079 289.435768,64.0981411 291.310969,64.0981411 L291.309902,64.0981411 Z M334.910974,0.00210227867 L334.910974,156.037352 L353.800576,156.037352 L353.800576,110.699747 L363.840044,110.699747 C368.997378,110.699747 373.452845,114.841614 373.831512,119.986148 L376.481112,156.037352 L396.819248,156.037352 L391.578714,114.773347 C391.47984,114.03153 391.322914,113.298614 391.109381,112.581347 L391.109381,112.556814 C391.098714,112.524814 391.084847,112.49388 391.075247,112.460814 C390.940847,112.012814 390.785114,111.57548 390.610181,111.144547 C390.599514,111.116813 390.590981,111.08908 390.579247,111.061347 C389.782593,109.150589 388.617293,107.415505 387.149913,105.955213 C386.789338,105.595275 386.412032,105.252496 386.019247,104.928013 C386.012847,104.928013 386.00858,104.916279 386.00218,104.910946 C385.993647,104.900279 385.984047,104.899213 385.975513,104.891746 C385.594713,104.578146 385.201113,104.283746 384.793646,104.006413 L384.729646,103.962679 C384.310446,103.680013 383.879513,103.418679 383.43578,103.176546 C387.069913,101.204279 389.933914,97.8080118 391.108314,93.7973447 L391.108314,13.4400016 C391.11655,9.87390872 389.703717,6.45147062 387.182302,3.92965526 C384.660887,1.40783989 381.238673,-0.00553667276 377.672579,0.00210227867 L334.910974,0.00210227867 Z M353.800576,63.8293234 L364.701911,63.8293234 C366.394006,63.8253636 368.017943,64.4957854 369.214438,65.6922808 C370.410934,66.8887761 371.081356,68.5127132 371.077396,70.2048085 L371.077396,86.8544105 C371.081356,88.5465058 370.410934,90.1704428 369.214438,91.3669382 C368.017943,92.5634336 366.394006,93.2338553 364.701911,93.2298955 L353.800576,93.2298955 L353.800576,63.8293234 Z M404.526982,0.00210454101 L404.526982,156.037386 L447.289654,156.037386 C450.855279,156.045304 454.277172,154.632458 456.798556,152.111274 C459.31994,149.59009 460.733058,146.16831 460.725422,142.602684 L460.725422,13.4400016 C460.73334,9.87399569 459.320415,6.4517234 456.799062,3.92997 C454.277709,1.40821659 450.855661,-0.00525153566 447.289654,0.00210454101 L404.526982,0.00210454101 Z M422.944051,63.8293259 L435.933919,63.8293259 C437.626025,63.8256499 439.249905,64.4961294 440.446508,65.6925317 C441.64311,66.8889341 442.313862,68.512702 442.310466,70.2048085 L442.310466,131.492283 C442.313578,133.184204 441.642701,134.807698 440.446129,136.003869 C439.249558,137.20004 437.62584,137.870374 435.933919,137.866698 L422.944051,137.866698 L422.944051,63.8293259 Z M533.912598,0.00213333359 L533.912598,110.316813 L551.674733,110.316813 L551.674733,0.00213333359 L533.912598,0.00213333359 Z M533.912598,116.989881 L533.912598,134.63575 L551.674733,134.63575 L551.674733,116.989881 L533.912598,116.989881 Z" id="Shape"></path>
            <path d="M81.9232099,0.00210454101 C78.3572028,-0.00525153566 74.9351548,1.40821659 72.4138018,3.92997 C69.8924487,6.4517234 68.4795239,9.87399569 68.4874416,13.4400016 L68.4874416,142.602684 C68.479806,146.16831 69.8929239,149.59009 72.4143082,152.111274 C74.9356924,154.632458 78.3575845,156.045304 81.9232099,156.037386 L123.849615,156.037386 L123.849615,137.866683 L93.9413447,137.866683 C92.5409923,137.869809 91.19711,137.314831 90.207009,136.32453 C89.2169079,135.334229 88.6622021,133.990234 88.6656107,132.589883 L88.6656107,115.593614 C88.6622032,114.193447 89.2167627,112.849616 90.2066327,111.859345 C91.1965027,110.869075 92.5401102,110.313972 93.940278,110.316813 L123.850682,110.316813 L123.850682,92.6122779 L93.9413447,92.6122779 C92.5409923,92.6154034 91.19711,92.0604259 90.207009,91.0701246 C89.2169079,90.0798234 88.6622021,88.735829 88.6656107,87.3354772 L88.6656107,69.0048083 C88.6619167,67.6046525 89.2164185,66.2607634 90.2063815,65.2706002 C91.1963446,64.280437 92.5401214,63.7256635 93.940278,63.7290744 L123.850682,63.7290744 L123.850682,0.00210454101 L81.9232099,0.00210454101 Z M200.817091,0.00213333359 L200.817091,156.037352 L220.849093,156.037352 L220.849093,110.316813 L243.577629,110.316813 C247.143451,110.32448 250.565448,108.91143 253.086971,106.390108 C255.608493,103.868786 257.021815,100.4469 257.01446,96.8810784 L257.01446,13.4400016 C257.01446,5.99680072 251.019764,0.00213333359 243.577629,0.00213333359 L200.817091,0.00213333359 Z M220.848027,63.7290587 L231.706695,63.7290587 C233.106851,63.7256635 234.450628,64.280437 235.440591,65.2706002 C236.430554,66.2607634 236.985056,67.6046525 236.98138,69.0048083 L236.98138,87.3354772 C236.98477,88.7356437 236.43021,90.0794756 235.44034,91.069746 C234.45047,92.0600163 233.106862,92.6151192 231.706695,92.6122887 L220.848027,92.6122887 L220.848027,63.7290587 Z M467.364294,0.00213333359 L467.364294,96.8810784 C467.356938,100.447086 468.770406,103.869133 471.29216,106.390487 C473.813913,108.91184 477.236186,110.324764 480.802191,110.316813 L505.040061,110.316813 L505.040061,133.056016 C505.043754,134.456552 504.489174,135.800822 503.499042,136.791354 C502.50891,137.781886 501.164865,138.33701 499.764327,138.333883 L484.268859,138.333883 L484.268859,156.037386 L510.124862,156.037386 C513.690682,156.045302 517.112792,154.632524 519.634515,152.111402 C522.156237,149.59028 523.569831,146.168506 523.562757,142.602684 L523.562757,0.00213333359 L505.040061,0.00213333359 L505.040061,92.6122779 L492.67206,92.6122779 C491.271892,92.6151192 489.928284,92.0600163 488.938414,91.069746 C487.948544,90.0794756 487.393985,88.7356437 487.397392,87.3354772 L487.397392,0.00213333359 L467.364294,0.00213333359 Z" id="Shape"></path>
        </g>
    </g>
</svg>